HIERARCHY
ROOT Hips
{
 OFFSET 0.000000 0.000000 0.000000
 CHANNELS 6 Xposition Yposition Zposition Yrotation Xrotation Zrotation
 JOINT Chest
 {
  OFFSET 0.000000 9.585900 0.002600
  CHANNELS 3 Yrotation Xrotation Zrotation
  JOINT Chest2
  {
   OFFSET 0.000000 9.601200 -0.005300
   CHANNELS 3 Yrotation Xrotation Zrotation
   JOINT Chest3
   {
    OFFSET 0.000000 9.561800 0.000000
    CHANNELS 3 Yrotation Xrotation Zrotation
    JOINT Chest4
    {
     OFFSET 0.000000 9.552100 0.000000
     CHANNELS 3 Yrotation Xrotation Zrotation
     JOINT Neck
     {
      OFFSET 0.000000 14.453000 0.000000
      CHANNELS 3 Yrotation Xrotation Zrotation
      JOINT Head
      {
       OFFSET 0.000000 8.936500 -0.011300
       CHANNELS 3 Yrotation Xrotation Zrotation
       End Site
       {
        OFFSET 0.000000 17.073600 -0.006000
       }
      }
     }
     JOINT RightCollar
     {
      OFFSET -2.921100 9.558500 0.000000
      CHANNELS 3 Yrotation Xrotation Zrotation
      JOINT RightShoulder
      {
       OFFSET -13.519700 0.000000 0.000000
       CHANNELS 3 Yrotation Xrotation Zrotation
       JOINT RightElbow
       {
        OFFSET 0.000000 -29.696600 0.000000
        CHANNELS 3 Yrotation Xrotation Zrotation
        JOINT RightWrist
        {
         OFFSET 0.000000 -24.004700 0.000000
         CHANNELS 3 Yrotation Xrotation Zrotation
         End Site
         {
          OFFSET 0.000000 -17.728500 0.000000
         }
        }
       }
      }
     }
     JOINT LeftCollar
     {
      OFFSET 2.921100 9.558500 0.000000
      CHANNELS 3 Yrotation Xrotation Zrotation
      JOINT LeftShoulder
      {
       OFFSET 13.519700 0.000000 0.000000
       CHANNELS 3 Yrotation Xrotation Zrotation
       JOINT LeftElbow
       {
        OFFSET 0.000000 -29.696600 0.000000
        CHANNELS 3 Yrotation Xrotation Zrotation
        JOINT LeftWrist
        {
         OFFSET 0.000000 -24.004700 0.000000
         CHANNELS 3 Yrotation Xrotation Zrotation
         End Site
         {
          OFFSET 0.000000 -17.728500 0.000000
         }
        }
       }
      }
     }
    }
   }
  }
 }
 JOINT RightHip
 {
  OFFSET -7.771700 -0.012900 -0.001300
  CHANNELS 3 Yrotation Xrotation Zrotation
  JOINT RightKnee
  {
   OFFSET 0.000000 -40.869800 0.001200
   CHANNELS 3 Yrotation Xrotation Zrotation
   JOINT RightAnkle
   {
    OFFSET 0.000000 -39.717900 0.002100
    CHANNELS 3 Yrotation Xrotation Zrotation
    JOINT RightToe
    {
     OFFSET 0.000000 -4.965400 11.033500
     CHANNELS 3 Yrotation Xrotation Zrotation
     End Site
     {
      OFFSET 0.000000 -1.423100 5.872300
     }
    }
   }
  }
 }
 JOINT LeftHip
 {
  OFFSET 7.771700 -0.012900 -0.001300
  CHANNELS 3 Yrotation Xrotation Zrotation
  JOINT LeftKnee
  {
   OFFSET 0.000000 -40.869800 0.001200
   CHANNELS 3 Yrotation Xrotation Zrotation
   JOINT LeftAnkle
   {
    OFFSET 0.000000 -39.717900 0.002100
    CHANNELS 3 Yrotation Xrotation Zrotation
    JOINT LeftToe
    {
     OFFSET 0.000000 -4.965400 11.033500
     CHANNELS 3 Yrotation Xrotation Zrotation
     End Site
     {
      OFFSET 0.000000 -1.423100 5.872300
     }
    }
   }
  }
 }
}
MOTION
Frames: 8
Frame Time: 0.008333
0.000000 85.388000 0.000000 0.000000 -5.767877 0.000000 0.000000 11.653817 0.000000 0.000000 -5.885947 0.000000 0.000000 -0.000000 0.000000 0.000000 -0.000000 0.000000 0.000000 12.528835 0.000000 0.000000 0.711642 0.000000 0.000000 -0.000000 0.000000 0.000000 0.000000 -90.000000 0.000000 -2.309062 0.000000 0.000000 2.309062 0.000000 0.000000 -0.000000 0.000000 0.000000 -0.000000 90.000000 0.000000 -2.309062 0.000000 0.000000 2.309062 0.000000 0.000000 8.520406 0.000000 0.000000 1.905762 0.000000 -0.000000 -4.658285 0.000000 0.000000 -0.000000 0.000000 0.000000 8.520406 0.000000 0.000000 1.905762 0.000000 -0.000000 -4.658285 0.000000 0.000000 -0.000000 0.000000
-259.729732 60.591321 -81.659781 161.449950 -16.299641 4.664812 2.306795 18.370875 6.517342 0.163275 2.225301 0.816941 0.280552 3.649213 1.348374 1.909992 15.797791 6.101418 6.681958 14.985838 -6.840262 9.075294 -9.493814 -9.207942 9.263828 3.471397 -10.520850 26.556124 -23.512180 -19.846385 42.543703 -53.153257 -34.094802 10.828639 15.729451 -20.983329 -14.086012 -13.940125 -1.872660 -29.362460 -22.241499 14.116715 -40.504972 -19.849518 26.636610 0.893336 -4.289843 38.285262 4.919958 -54.223824 1.325870 -35.723009 68.642011 -37.262574 -2.928123 -1.391706 0.184096 0.483395 -0.799289 0.136919 15.185757 -50.429253 -9.075671 24.546596 61.559537 24.789101 -13.997630 -16.147386 2.054263 0.028935 0.714610 0.087464
-259.730337 60.593818 -81.659640 161.422253 -16.289719 4.713258 2.305529 18.352532 6.472287 0.156010 2.208564 0.818066 0.294601 3.669241 1.343922 1.910705 15.777796 6.098215 6.604767 14.995200 -6.850583 8.977834 -9.487606 -9.191727 9.310295 3.460721 -10.455617 26.476351 -23.481125 -19.913294 42.574400 -53.107587 -33.974547 10.979011 15.898783 -21.093498 -14.084708 -13.892272 -1.867361 -29.326308 -22.245043 14.143585 -40.462405 -19.834094 26.606536 0.905421 -4.331990 38.272157 4.945430 -54.214683 1.269905 -35.643063 68.645066 -37.178912 -2.902285 -1.444269 0.177584 0.467362 -0.748474 0.133714 15.311238 -50.416133 -9.144399 24.493498 61.564573 24.721424 -14.051576 -16.117157 2.062500 -0.023989 0.701248 0.078879
-259.721845 60.596735 -81.658523 161.408378 -16.288356 4.707570 2.298411 18.328882 6.482947 0.172785 2.229373 0.810887 0.289558 3.650351 1.344138 1.936648 15.734182 6.090521 6.509582 15.034480 -6.848400 8.877577 -9.485121 -9.174378 9.327956 3.486523 -10.378827 26.397809 -23.454367 -19.994720 42.664490 -53.065552 -33.900139 11.145590 16.094193 -21.158954 -14.108649 -13.803931 -1.863868 -29.277946 -22.253506 14.167021 -40.421201 -19.823298 26.577204 0.921673 -4.390139 38.267032 4.841799 -54.196019 1.319128 -35.569649 68.640138 -37.074691 -2.874070 -1.499815 0.115421 0.484693 -0.705870 0.142155 15.360229 -50.410944 -9.139030 24.433656 61.571228 24.665347 -14.068051 -16.105362 2.056958 -0.074104 0.695613 0.083454
-259.707266 60.600080 -81.656914 161.393798 -16.291126 4.667248 2.323957 18.327842 6.530045 0.167803 2.215679 0.812937 0.292957 3.644941 1.342050 1.955394 15.725414 6.085267 6.422740 15.038281 -6.856396 8.778517 -9.486091 -9.158197 9.350162 3.483879 -10.313301 26.323369 -23.434561 -20.092837 42.815716 -53.026475 -33.863020 11.317597 16.300230 -21.183781 -14.126705 -13.721524 -1.862042 -29.181478 -22.261786 14.225104 -40.416782 -19.866466 26.545878 0.934676 -4.449708 38.264794 4.648737 -54.172909 1.453545 -35.467013 68.634917 -36.957582 -2.815899 -1.545892 0.057104 0.477438 -0.675962 0.140569 15.371912 -50.409612 -9.052403 24.323096 61.590863 24.546604 -14.097417 -16.112178 2.055141 -0.009697 0.725466 0.084399
-259.704411 60.604968 -81.659779 161.350068 -16.292134 4.708852 2.345090 18.322058 6.496209 0.170550 2.212460 0.811594 0.297675 3.639860 1.340166 1.970897 15.717076 6.085031 6.338570 15.039509 -6.867548 8.683771 -9.489459 -9.146598 9.374069 3.486236 -10.248715 26.250220 -23.423817 -20.210705 43.012120 -52.994174 -33.838302 11.498874 16.493170 -21.183581 -14.143176 -13.684940 -1.861673 -29.156793 -22.258490 14.236658 -40.350067 -19.842307 26.539376 0.940437 -4.494209 38.253651 4.549217 -54.145023 1.493038 -35.270920 68.645101 -36.815516 -2.741209 -1.595340 0.059675 0.422338 -0.635583 0.117505 15.452948 -50.394270 -9.062012 24.342466 61.610086 24.494014 -14.083460 -16.092334 2.117835 -0.035956 0.698250 0.067696
-259.698381 60.610157 -81.663109 161.299661 -16.297165 4.732467 2.376438 18.317209 6.486365 0.172990 2.210284 0.810205 0.292694 3.613941 1.341950 1.991815 15.731988 6.079388 6.292200 15.054004 -6.870931 8.558140 -9.501770 -9.143753 9.400621 3.496824 -10.187275 26.176127 -23.421576 -20.352615 43.237373 -52.978823 -33.801519 11.690439 16.657073 -21.181666 -14.151454 -13.624570 -1.873296 -29.144528 -22.272553 14.267416 -40.286035 -19.821056 26.544226 0.929629 -4.532697 38.228164 4.397466 -54.118166 1.584857 -35.144843 68.642207 -36.709070 -2.697887 -1.636755 -0.017224 0.441511 -0.610300 0.129942 15.510098 -50.381628 -9.050402 24.366789 61.629895 24.467872 -14.051020 -16.076316 2.145386 -0.095559 0.679730 0.045043
-259.695393 60.615295 -81.666655 161.257185 -16.295047 4.768421 2.373475 18.287432 6.463843 0.189357 2.227300 0.802153 0.301009 3.621272 1.337621 2.004844 15.711389 6.075789 6.245753 15.071194 -6.874085 8.439042 -9.511916 -9.144888 9.426224 3.517296 -10.127357 26.097140 -23.428719 -20.515885 43.489023 -52.987903 -33.746498 11.879399 16.780415 -21.195996 -14.152444 -13.562859 -1.886941 -29.102066 -22.274375 14.296783 -40.254790 -19.827709 26.560291 0.893981 -4.587446 38.186340 4.241224 -54.101490 1.667518 -35.027558 68.639078 -36.619143 -2.672925 -1.671282 -0.102374 0.464695 -0.593530 0.164601 15.579812 -50.372964 -9.061949 24.354610 61.652869 24.417825 -14.049175 -16.049144 2.136257 -0.187431 0.666006 0.021365
